solid base
facet normal -0.13052619222006742 -0.9914448613738084 1.3079604844501266e-19
  outer loop
    vertex 141.31240142249294 116.47581480290523 40.16150072155963
    vertex 141.31240142249294 116.47581480290523 23.13180964795743
    vertex 141.4767093189545 116.45418325796275 23.528483999999978
  endloop
endfacet
facet normal -0.130526192220059 -0.9914448613738096 8.484977058310448e-17
  outer loop
    vertex 141.31240142249294 116.47581480290523 40.16150072155963
    vertex 141.4767093189545 116.45418325796275 23.528483999999978
    vertex 141.87400587544923 116.40187817401733 24.046250952966314
  endloop
endfacet
facet normal -0.13052619222005943 -0.9914448613738094 7.143822243502326e-17
  outer loop
    vertex 141.31240142249294 116.47581480290523 40.16150072155963
    vertex 141.87400587544923 116.40187817401733 24.046250952966314
    vertex 142.39177282841555 116.3337128614911 24.443547509461045
  endloop
endfacet
facet normal -0.13052619222005987 -0.9914448613738094 3.311512914433562e-17
  outer loop
    vertex 141.31240142249294 116.47581480290523 40.16150072155963
    vertex 142.39177282841555 116.3337128614911 24.443547509461045
    vertex 142.99472521565932 116.25433267378418 24.69329856572265
  endloop
endfacet
facet normal -0.1305261922200367 -0.9914448613738125 2.6047381355996042e-15
  outer loop
    vertex 141.31240142249294 116.47581480290523 40.16150072155963
    vertex 142.99472521565932 116.25433267378418 24.69329856572265
    vertex 143.6417728284156 116.16914723950684 24.77848399999997
  endloop
endfacet
facet normal -0.1305261922200512 -0.9914448613738105 3.875443100881479e-16
  outer loop
    vertex 141.31240142249294 116.47581480290523 40.16150072155963
    vertex 143.6417728284156 116.16914723950684 24.77848399999997
    vertex 143.64177282841567 116.16914723950684 40.02273290740255
  endloop
endfacet
facet normal -0.13052619222005374 0.9914448613738103 9.585563141236316e-19
  outer loop
    vertex 141.31240142249294 133.86247967610845 40.16150072155963
    vertex 143.6417728284156 134.16914723950686 -2.8199664825478954e-14
    vertex 141.31240142249294 133.86247967610845 -2.8199664825478954e-14
  endloop
endfacet
facet normal -0.13052619222005127 0.9914448613738105 1.4574744961278685e-16
  outer loop
    vertex 141.31240142249294 133.86247967610845 40.16150072155963
    vertex 143.64177282841567 134.16914723950686 40.02273290740255
    vertex 143.6417728284156 134.16914723950686 -2.8199664825478954e-14
  endloop
endfacet
facet normal -0.7933533402912342 -0.6087614290087219 2.3673737260398183e-18
  outer loop
    vertex 135.84754419435566 120.66914723950684 40.48705906330833
    vertex 137.2778117977367 118.8051862088279 -2.8199664825478954e-14
    vertex 137.2778117977367 118.8051862088279 40.40185362613494
  endloop
endfacet
facet normal -0.7933533402912343 -0.6087614290087218 -4.714839771525035e-18
  outer loop
    vertex 135.84754419435566 120.66914723950684 -2.8199664825478954e-14
    vertex 137.2778117977367 118.8051862088279 -2.8199664825478954e-14
    vertex 135.84754419435566 120.66914723950684 40.48705906330833
  endloop
endfacet
facet normal -0.6087614290087159 -0.793353340291239 -2.3804407198600024e-18
  outer loop
    vertex 139.14177282841564 117.37491860544691 40.290811738506534
    vertex 137.2778117977367 118.8051862088279 -2.8199664825478954e-14
    vertex 139.14177282841564 117.37491860544691 -2.8199664825478954e-14
  endloop
endfacet
facet normal -0.6087614290087159 -0.7933533402912388 4.734747452079665e-18
  outer loop
    vertex 137.2778117977367 118.8051862088279 40.40185362613494
    vertex 137.2778117977367 118.8051862088279 -2.8199664825478954e-14
    vertex 139.14177282841564 117.37491860544691 40.290811738506534
  endloop
endfacet
facet normal 0.7933533402912378 -0.6087614290087174 -4.032281540105743e-17
  outer loop
    vertex 151.43600146247556 120.66914723950686 -2.8199664825478954e-14
    vertex 150.0057338590946 118.80518620882798 40.36302802341347
    vertex 150.00573385909453 118.8051862088279 -2.8199664825478954e-14
  endloop
endfacet
facet normal 0.7933533402912428 -0.6087614290087108 4.370833686000665e-16
  outer loop
    vertex 151.43600146247556 120.66914723950686 40.4425402129452
    vertex 150.0057338590946 118.80518620882798 40.36302802341347
    vertex 151.43600146247556 120.66914723950686 -2.8199664825478954e-14
  endloop
endfacet
facet normal -0.7933533402912323 0.6087614290087243 -4.455523584091203e-16
  outer loop
    vertex 137.2778117977367 131.53310827018578 40.401853626134944
    vertex 135.84754419435566 129.66914723950686 -2.8199664825478954e-14
    vertex 135.84754419435566 129.66914723950686 40.48705906330834
  endloop
endfacet
facet normal -0.7933533402912342 0.6087614290087219 -2.7461535222061886e-16
  outer loop
    vertex 137.2778117977367 131.53310827018578 -2.8199664825478954e-14
    vertex 135.84754419435566 129.66914723950686 -2.8199664825478954e-14
    vertex 137.2778117977367 131.53310827018578 40.401853626134944
  endloop
endfacet
facet normal 0.9914448613738114 0.13052619222004425 -5.532088963116516e-16
  outer loop
    vertex 152.33510526501726 127.49851864542954 -2.8199664825478954e-14
    vertex 152.64177282841564 125.16914723950686 40.60693188662645
    vertex 152.64177282841564 125.16914723950686 -2.8199664825478954e-14
  endloop
endfacet
facet normal 0.9914448613738114 0.13052619222004427 -5.518307099180643e-16
  outer loop
    vertex 152.3351052650173 127.49851864542954 40.554109241484554
    vertex 152.64177282841564 125.16914723950686 40.60693188662645
    vertex 152.33510526501726 127.49851864542954 -2.8199664825478954e-14
  endloop
endfacet
facet normal -0.05946764315891924 -9.664194184947727e-16 -0.9982302336721341
  outer loop
    vertex 135.84754419435566 120.66914723950684 40.48705906330833
    vertex 135.71254232245448 115.16914723950686 40.49510153975635
    vertex 135.71254232245448 120.99507058959642 40.49510153975635
  endloop
endfacet
facet normal -0.05946764315899292 8.500901484388116e-16 -0.9982302336721297
  outer loop
    vertex 137.2778117977367 118.8051862088279 40.40185362613494
    vertex 135.71254232245448 115.16914723950686 40.49510153975635
    vertex 135.84754419435566 120.66914723950684 40.48705906330833
  endloop
endfacet
facet normal -0.05946764315899774 2.9287861382648404e-15 -0.9982302336721295
  outer loop
    vertex 139.14177282841564 117.37491860544691 40.290811738506534
    vertex 135.71254232245448 115.16914723950686 40.49510153975635
    vertex 137.2778117977367 118.8051862088279 40.40185362613494
  endloop
endfacet
facet normal -0.059467643158995234 -1.0088572790518202e-15 -0.9982302336721297
  outer loop
    vertex 143.75893937586216 115.16914723950686 40.01575293605056
    vertex 135.71254232245448 115.16914723950686 40.49510153975635
    vertex 139.14177282841564 117.37491860544691 40.290811738506534
  endloop
endfacet
facet normal -0.05946764315896977 5.731637831466346e-14 -0.9982302336721313
  outer loop
    vertex 143.75893937586216 115.16914723950686 40.01575293605056
    vertex 139.14177282841564 117.37491860544691 40.290811738506534
    vertex 141.31240142249294 116.47581480290523 40.16150072155963
  endloop
endfacet
facet normal -0.05946764315899758 -7.52737514142693e-17 -0.9982302336721295
  outer loop
    vertex 143.75893937586216 115.16914723950686 40.01575293605056
    vertex 141.31240142249294 116.47581480290523 40.16150072155963
    vertex 143.64177282841567 116.16914723950684 40.02273290740255
  endloop
endfacet
facet normal -0.05946764315899693 5.690809125760504e-19 -0.9982302336721295
  outer loop
    vertex 143.75893937586216 115.16914723950686 40.01575293605056
    vertex 143.64177282841567 116.16914723950684 40.02273290740255
    vertex 143.75893937586216 116.18457250811188 40.01575293605056
  endloop
endfacet
facet normal -0.1305261922200541 -1.181868880386145e-15 0.9914448613738103
  outer loop
    vertex 143.6417728284156 109.16914723950686 24.77848399999997
    vertex 142.99472521565932 116.25433267378418 24.69329856572265
    vertex 142.99472521565932 109.16914723950686 24.69329856572264
  endloop
endfacet
facet normal -0.13052619222003684 4.201092099364856e-16 0.9914448613738125
  outer loop
    vertex 143.6417728284156 116.16914723950684 24.77848399999997
    vertex 142.99472521565932 116.25433267378418 24.69329856572265
    vertex 143.6417728284156 109.16914723950686 24.77848399999997
  endloop
endfacet
facet normal 0.7429149728404137 -4.9160807843375544e-17 0.6693857954345366
  outer loop
    vertex 207.1368020477414 141.16914723950686 37.42864744689327
    vertex 192.72774254286523 109.16914723950686 53.42048074202908
    vertex 207.1368020477414 109.16914723950686 37.42864744689327
  endloop
endfacet
facet normal 0.7429149728404137 -4.916080784337554e-17 0.6693857954345368
  outer loop
    vertex 192.72774254286523 141.16914723950686 53.42048074202908
    vertex 192.72774254286523 109.16914723950686 53.42048074202908
    vertex 207.1368020477414 141.16914723950686 37.42864744689327
  endloop
endfacet
facet normal 0.9238795325112832 -0.38268343236509894 5.132918669664622e-16
  outer loop
    vertex 152.33510526501726 122.83977583358416 -2.8199664825478954e-14
    vertex 151.43600146247556 120.66914723950686 40.4425402129452
    vertex 151.43600146247556 120.66914723950686 -2.8199664825478954e-14
  endloop
endfacet
facet normal 0.9238795325112839 -0.3826834323650969 6.412550062622856e-16
  outer loop
    vertex 152.33510526501726 122.83977583358416 -2.8199664825478954e-14
    vertex 151.80717485999983 121.5652390898021 40.46317467985428
    vertex 151.43600146247556 120.66914723950686 40.4425402129452
  endloop
endfacet
facet normal 0.9238795325112884 -0.3826834323650861 1.0285197437825626e-15
  outer loop
    vertex 152.3351052650172 122.83977583358416 40.55410924148454
    vertex 151.80717485999983 121.5652390898021 40.46317467985428
    vertex 152.33510526501726 122.83977583358416 -2.8199664825478954e-14
  endloop
endfacet
facet normal -0.38268343236508845 0.9238795325112875 2.555163484535732e-16
  outer loop
    vertex 139.14177282841564 132.96337587356678 40.29081173850654
    vertex 141.31240142249294 133.86247967610845 -2.8199664825478954e-14
    vertex 139.14177282841564 132.9633758735668 -2.8199664825478954e-14
  endloop
endfacet
facet normal -0.3826834323650925 0.9238795325112857 -4.1146305271729904e-18
  outer loop
    vertex 139.14177282841564 132.96337587356678 40.29081173850654
    vertex 141.31240142249294 133.86247967610845 40.16150072155963
    vertex 141.31240142249294 133.86247967610845 -2.8199664825478954e-14
  endloop
endfacet
facet normal 0.1305261922200318 -0.9914448613738132 -1.731133192397242e-16
  outer loop
    vertex 145.97114423433837 116.47581480290523 40.138734993096634
    vertex 145.80683633787672 116.45418325796275 23.528483999999963
    vertex 145.97114423433834 116.47581480290523 23.131809647957265
  endloop
endfacet
facet normal 0.13052619222005843 -0.9914448613738096 -4.4153354245060543e-16
  outer loop
    vertex 145.97114423433837 116.47581480290523 40.138734993096634
    vertex 145.409539781382 116.40187817401733 24.04625095296633
    vertex 145.80683633787672 116.45418325796275 23.528483999999963
  endloop
endfacet
facet normal 0.1305261922200483 -0.9914448613738109 -8.238049283385057e-17
  outer loop
    vertex 145.97114423433837 116.47581480290523 40.138734993096634
    vertex 144.8917728284156 116.3337128614911 24.443547509461073
    vertex 145.409539781382 116.40187817401733 24.04625095296633
  endloop
endfacet
facet normal 0.13052619222007814 -0.991444861373807 -2.191767644099395e-15
  outer loop
    vertex 145.97114423433837 116.47581480290523 40.138734993096634
    vertex 144.28882044117196 116.25433267378418 24.693298565722635
    vertex 144.8917728284156 116.3337128614911 24.443547509461073
  endloop
endfacet
facet normal 0.13052619222003242 -0.9914448613738129 2.898035365016387e-15
  outer loop
    vertex 145.97114423433837 116.47581480290523 40.138734993096634
    vertex 143.6417728284156 116.16914723950684 24.77848399999997
    vertex 144.28882044117196 116.25433267378418 24.693298565722635
  endloop
endfacet
facet normal 0.13052619222004866 -0.9914448613738109 3.971914383373999e-16
  outer loop
    vertex 145.97114423433837 116.47581480290523 40.138734993096634
    vertex 143.75893937586216 116.18457250811188 40.01575293605056
    vertex 143.6417728284156 116.16914723950684 24.77848399999997
  endloop
endfacet
facet normal 0.13052619222014902 -0.9914448613737976 -3.864043494975221e-16
  outer loop
    vertex 143.64177282841567 116.16914723950684 40.02273290740255
    vertex 143.6417728284156 116.16914723950684 24.77848399999997
    vertex 143.75893937586216 116.18457250811188 40.01575293605056
  endloop
endfacet
facet normal -0.9238795325112964 -3.007086691841271e-16 0.38268343236506663
  outer loop
    vertex 141.4767093189545 116.45418325796275 23.528483999999978
    vertex 141.22695826269296 109.16914723950686 22.925531612756274
    vertex 141.4767093189545 109.16914723950686 23.52848399999997
  endloop
endfacet
facet normal -0.9238795325112832 -3.4354766711326897e-15 0.3826834323650989
  outer loop
    vertex 141.31240142249294 116.47581480290523 23.13180964795743
    vertex 141.22695826269296 109.16914723950686 22.925531612756274
    vertex 141.4767093189545 116.45418325796275 23.528483999999978
  endloop
endfacet
facet normal -0.9238795325113315 4.401652329649892e-16 0.3826834323649818
  outer loop
    vertex 141.22695826269296 116.51120651850641 22.925531612756263
    vertex 141.22695826269296 109.16914723950686 22.925531612756274
    vertex 141.31240142249294 116.47581480290523 23.13180964795743
  endloop
endfacet
facet normal 0.9238795325112832 0.38268343236509894 -5.104715017155765e-16
  outer loop
    vertex 151.43600146247556 129.66914723950686 -2.8199664825478954e-14
    vertex 152.3351052650173 127.49851864542954 40.554109241484554
    vertex 152.33510526501726 127.49851864542954 -2.8199664825478954e-14
  endloop
endfacet
facet normal 0.923879532511271 0.38268343236512803 1.3091626109586465e-15
  outer loop
    vertex 151.43600146247556 129.66914723950686 -2.8199664825478954e-14
    vertex 151.80717485999983 128.7730553892116 40.46317467985428
    vertex 152.3351052650173 127.49851864542954 40.554109241484554
  endloop
endfacet
facet normal 0.9238795325112953 0.3826834323650693 -2.127922940889744e-16
  outer loop
    vertex 151.43600146247556 129.66914723950688 40.4425402129452
    vertex 151.80717485999983 128.7730553892116 40.46317467985428
    vertex 151.43600146247556 129.66914723950686 -2.8199664825478954e-14
  endloop
endfacet
facet normal -0.6087614290087459 1.192945232939643e-15 0.7933533402912161
  outer loop
    vertex 142.39177282841555 116.3337128614911 24.443547509461045
    vertex 141.87400587544923 116.40187817401733 24.046250952966314
    vertex 141.87400587544926 109.16914723950686 24.046250952966343
  endloop
endfacet
facet normal -0.6087614290087405 5.754818869538715e-16 0.7933533402912201
  outer loop
    vertex 142.39177282841558 109.16914723950686 24.44354750946107
    vertex 142.39177282841555 116.3337128614911 24.443547509461045
    vertex 141.87400587544926 109.16914723950686 24.046250952966343
  endloop
endfacet
facet normal -0.49658088041439574 0.0 -0.8679904545597628
  outer loop
    vertex 112.63951029750366 135.16914723950686 47.36981119908967
    vertex 105.64293215313782 115.16914723950686 51.372582101195356
    vertex 105.64293215313782 135.16914723950686 51.372582101195356
  endloop
endfacet
facet normal -0.49658088041439585 2.400545629005332e-17 -0.8679904545597628
  outer loop
    vertex 112.63951029750366 115.16914723950686 47.36981119908967
    vertex 105.64293215313782 115.16914723950686 51.372582101195356
    vertex 112.63951029750366 135.16914723950686 47.36981119908967
  endloop
endfacet
facet normal 0.0 -1.0 0.0
  outer loop
    vertex 135.71254232245448 115.16914723950686 40.49510153975635
    vertex 143.75893937586216 115.16914723950686 40.01575293605056
    vertex 151.80717485999983 115.16914723950686 40.46317467985428
  endloop
endfacet
facet normal 0.0 -1.0 0.0
  outer loop
    vertex 159.75085770802187 115.16914723950686 41.83145222297276
    vertex 135.71254232245448 115.16914723950686 40.49510153975635
    vertex 151.80717485999983 115.16914723950686 40.46317467985428
  endloop
endfacet
facet normal 0.0 -1.0 0.0
  outer loop
    vertex 127.77435046407753 115.16914723950686 41.894883895895624
    vertex 135.71254232245448 115.16914723950686 40.49510153975635
    vertex 159.75085770802187 115.16914723950686 41.83145222297276
  endloop
endfacet
facet normal 0.0 -1.0 0.0
  outer loop
    vertex 167.48497895311172 115.16914723950686 44.1024980594129
    vertex 127.77435046407753 115.16914723950686 41.894883895895624
    vertex 159.75085770802187 115.16914723950686 41.83145222297276
  endloop
endfacet
facet normal 0.0 -1.0 0.0
  outer loop
    vertex 120.04930018117174 115.16914723950686 44.19659603070731
    vertex 127.77435046407753 115.16914723950686 41.894883895895624
    vertex 167.48497895311172 115.16914723950686 44.1024980594129
  endloop
endfacet
facet normal 0.0 -1.0 0.0
  outer loop
    vertex 174.90729986082852 115.16914723950686 47.24629082736556
    vertex 120.04930018117174 115.16914723950686 44.19659603070731
    vertex 167.48497895311172 115.16914723950686 44.1024980594129
  endloop
endfacet
facet normal 0.0 -1.0 0.0
  outer loop
    vertex 112.63951029750366 115.16914723950686 47.36981119908967
    vertex 120.04930018117174 115.16914723950686 44.19659603070731
    vertex 174.90729986082852 115.16914723950686 47.24629082736556
  endloop
endfacet
facet normal 0.0 -1.0 0.0
  outer loop
    vertex 181.91970344125576 115.16914723950686 51.22127216696618
    vertex 112.63951029750366 115.16914723950686 47.36981119908967
    vertex 174.90729986082852 115.16914723950686 47.24629082736556
  endloop
endfacet
facet normal 0.0 -1.0 0.0
  outer loop
    vertex 105.64293215313782 115.16914723950686 51.372582101195356
    vertex 112.63951029750366 115.16914723950686 47.36981119908967
    vertex 181.91970344125576 115.16914723950686 51.22127216696618
  endloop
endfacet
facet normal 4.6943566010055276e-18 -1.0 2.3664696348187518e-15
  outer loop
    vertex 188.42949147507008 115.16914723950686 55.97489608769969
    vertex 105.64293215313782 115.16914723950686 51.372582101195356
    vertex 181.91970344125576 115.16914723950686 51.22127216696618
  endloop
endfacet
facet normal 4.694356601006301e-18 -1.0 2.3664696348187383e-15
  outer loop
    vertex 99.15205476812285 115.16914723950686 56.15199539130359
    vertex 105.64293215313782 115.16914723950686 51.372582101195356
    vertex 188.42949147507008 115.16914723950686 55.97489608769969
  endloop
endfacet
facet normal 0.0 -1.0 0.0
  outer loop
    vertex 182.1368020477414 115.16914723950686 59.71458978757311
    vertex 99.15205476812285 115.16914723950686 56.15199539130359
    vertex 188.42949147507008 115.16914723950686 55.97489608769969
  endloop
endfacet
facet normal 0.0 -1.0 0.0
  outer loop
    vertex 105.14674360908984 115.16914723950686 59.71458978757311
    vertex 99.15205476812285 115.16914723950686 56.15199539130359
    vertex 182.1368020477414 115.16914723950686 59.71458978757311
  endloop
endfacet
facet normal 1.0 0.0 0.0
  outer loop
    vertex 146.14177282841558 116.54649148070071 -2.5379698342931056e-14
    vertex 146.14177282841558 109.16914723950686 22.278483999999978
    vertex 146.14177282841558 109.16914723950686 -2.2559731860383158e-14
  endloop
endfacet
facet normal 1.0 0.0 0.0
  outer loop
    vertex 146.14177282841558 116.54649148070071 22.278483999999978
    vertex 146.14177282841558 109.16914723950686 22.278483999999978
    vertex 146.14177282841558 116.54649148070071 -2.5379698342931056e-14
  endloop
endfacet
facet normal -0.9914448613738098 1.495560497521522e-16 0.13052619222005726
  outer loop
    vertex 141.22695826269296 116.51120651850641 22.925531612756263
    vertex 141.14177282841564 109.16914723950686 22.278483999999978
    vertex 141.22695826269296 109.16914723950686 22.925531612756274
  endloop
endfacet
facet normal -0.9914448613738098 1.9846390054692327e-16 0.1305261922200567
  outer loop
    vertex 141.14177282841564 116.54649148070072 22.278483999999967
    vertex 141.14177282841564 109.16914723950686 22.278483999999978
    vertex 141.22695826269296 116.51120651850641 22.925531612756263
  endloop
endfacet
facet normal 0.0 1.0 0.0
  outer loop
    vertex 80.14674360908984 141.16914723950686 37.42864744689327
    vertex 207.1368020477414 141.16914723950686 -2.2559731860383158e-14
    vertex 80.14674360908984 141.16914723950686 -2.2559731860383158e-14
  endloop
endfacet
facet normal 0.0 1.0 0.0
  outer loop
    vertex 207.1368020477414 141.16914723950686 37.42864744689327
    vertex 207.1368020477414 141.16914723950686 -2.2559731860383158e-14
    vertex 80.14674360908984 141.16914723950686 37.42864744689327
  endloop
endfacet
facet normal 0.0 1.0 0.0
  outer loop
    vertex 94.42397859354816 141.16914723950686 53.34213851106589
    vertex 207.1368020477414 141.16914723950686 37.42864744689327
    vertex 80.14674360908984 141.16914723950686 37.42864744689327
  endloop
endfacet
facet normal 0.0 1.0 0.0
  outer loop
    vertex 192.72774254286523 141.16914723950686 53.42048074202908
    vertex 207.1368020477414 141.16914723950686 37.42864744689327
    vertex 94.42397859354816 141.16914723950686 53.34213851106589
  endloop
endfacet
facet normal 0.0 1.0 0.0
  outer loop
    vertex 105.14674360908984 141.16914723950686 59.71458978757311
    vertex 192.72774254286523 141.16914723950686 53.42048074202908
    vertex 94.42397859354816 141.16914723950686 53.34213851106589
  endloop
endfacet
facet normal 0.0 1.0 0.0
  outer loop
    vertex 182.1368020477414 141.16914723950686 59.71458978757311
    vertex 192.72774254286523 141.16914723950686 53.42048074202908
    vertex 105.14674360908984 141.16914723950686 59.71458978757311
  endloop
endfacet
facet normal -0.5108830691341283 -5.0841608647258886e-18 0.8596502135590346
  outer loop
    vertex 99.15205476812285 115.16914723950686 56.15199539130359
    vertex 94.42397859354816 141.16914723950686 53.34213851106589
    vertex 94.42397859354816 109.16914723950686 53.34213851106589
  endloop
endfacet
facet normal -0.5108830691341271 -1.2863619635863249e-15 0.8596502135590353
  outer loop
    vertex 105.14674360908984 109.16914723950686 59.71458978757311
    vertex 99.15205476812285 115.16914723950686 56.15199539130359
    vertex 94.42397859354816 109.16914723950686 53.34213851106589
  endloop
endfacet
facet normal -0.510883069134126 0.0 0.8596502135590359
  outer loop
    vertex 105.14674360908984 115.16914723950686 59.71458978757311
    vertex 99.15205476812285 115.16914723950686 56.15199539130359
    vertex 105.14674360908984 109.16914723950686 59.71458978757311
  endloop
endfacet
facet normal -0.5108830691341271 3.3740641667838036e-16 0.8596502135590353
  outer loop
    vertex 105.14674360908984 141.16914723950686 59.71458978757311
    vertex 94.42397859354816 141.16914723950686 53.34213851106589
    vertex 99.15205476812287 135.16914723950686 56.15199539130359
  endloop
endfacet
facet normal -0.5108830691341271 2.863399399013607e-16 0.8596502135590353
  outer loop
    vertex 99.15205476812287 135.16914723950686 56.15199539130359
    vertex 94.42397859354816 141.16914723950686 53.34213851106589
    vertex 99.15205476812285 115.16914723950686 56.15199539130359
  endloop
endfacet
facet normal -0.5108830691341268 -4.498030356484888e-17 0.8596502135590354
  outer loop
    vertex 105.14674360908984 141.16914723950686 59.71458978757311
    vertex 99.15205476812287 135.16914723950686 56.15199539130359
    vertex 105.14674360908984 135.16914723950686 59.71458978757311
  endloop
endfacet
facet normal 0.0 1.0 0.0
  outer loop
    vertex 135.71254232245448 135.16914723950686 40.49510153975635
    vertex 151.80717485999983 135.16914723950686 40.46317467985428
    vertex 143.75893937586216 135.16914723950686 40.01575293605056
  endloop
endfacet
facet normal 0.0 1.0 0.0
  outer loop
    vertex 159.75085770802187 135.16914723950686 41.83145222297276
    vertex 151.80717485999983 135.16914723950686 40.46317467985428
    vertex 135.71254232245448 135.16914723950686 40.49510153975635
  endloop
endfacet
facet normal 0.0 1.0 0.0
  outer loop
    vertex 127.77435046407753 135.16914723950686 41.894883895895624
    vertex 159.75085770802187 135.16914723950686 41.83145222297276
    vertex 135.71254232245448 135.16914723950686 40.49510153975635
  endloop
endfacet
facet normal 0.0 1.0 0.0
  outer loop
    vertex 167.48497895311172 135.16914723950686 44.1024980594129
    vertex 159.75085770802187 135.16914723950686 41.83145222297276
    vertex 127.77435046407753 135.16914723950686 41.894883895895624
  endloop
endfacet
facet normal 0.0 1.0 0.0
  outer loop
    vertex 120.04930018117174 135.16914723950686 44.19659603070731
    vertex 167.48497895311172 135.16914723950686 44.1024980594129
    vertex 127.77435046407753 135.16914723950686 41.894883895895624
  endloop
endfacet
facet normal 0.0 1.0 0.0
  outer loop
    vertex 174.90729986082852 135.16914723950686 47.24629082736556
    vertex 167.48497895311172 135.16914723950686 44.1024980594129
    vertex 120.04930018117174 135.16914723950686 44.19659603070731
  endloop
endfacet
facet normal 0.0 1.0 0.0
  outer loop
    vertex 112.63951029750366 135.16914723950686 47.36981119908967
    vertex 174.90729986082852 135.16914723950686 47.24629082736556
    vertex 120.04930018117174 135.16914723950686 44.19659603070731
  endloop
endfacet
facet normal 0.0 1.0 0.0
  outer loop
    vertex 181.91970344125576 135.16914723950686 51.22127216696618
    vertex 174.90729986082852 135.16914723950686 47.24629082736556
    vertex 112.63951029750366 135.16914723950686 47.36981119908967
  endloop
endfacet
facet normal 0.0 1.0 0.0
  outer loop
    vertex 105.64293215313782 135.16914723950686 51.372582101195356
    vertex 181.91970344125576 135.16914723950686 51.22127216696618
    vertex 112.63951029750366 135.16914723950686 47.36981119908967
  endloop
endfacet
facet normal 0.0 1.0 0.0
  outer loop
    vertex 188.42949147507008 135.16914723950686 55.97489608769969
    vertex 181.91970344125576 135.16914723950686 51.22127216696618
    vertex 105.64293215313782 135.16914723950686 51.372582101195356
  endloop
endfacet
facet normal 0.0 1.0 0.0
  outer loop
    vertex 99.15205476812287 135.16914723950686 56.15199539130359
    vertex 188.42949147507008 135.16914723950686 55.97489608769969
    vertex 105.64293215313782 135.16914723950686 51.372582101195356
  endloop
endfacet
facet normal 0.0 1.0 0.0
  outer loop
    vertex 182.1368020477414 135.16914723950686 59.71458978757311
    vertex 188.42949147507008 135.16914723950686 55.97489608769969
    vertex 99.15205476812287 135.16914723950686 56.15199539130359
  endloop
endfacet
facet normal 0.0 1.0 0.0
  outer loop
    vertex 182.1368020477414 135.16914723950686 59.71458978757311
    vertex 99.15205476812287 135.16914723950686 56.15199539130359
    vertex 105.14674360908984 135.16914723950686 59.71458978757311
  endloop
endfacet
facet normal 0.1305261922200541 -4.201092099365142e-16 0.99144486137381
  outer loop
    vertex 144.28882044117188 109.16914723950686 24.69329856572264
    vertex 143.6417728284156 116.16914723950684 24.77848399999997
    vertex 143.6417728284156 109.16914723950686 24.77848399999997
  endloop
endfacet
facet normal 0.13052619222005377 -4.55284581890115e-16 0.9914448613738103
  outer loop
    vertex 144.28882044117196 116.25433267378418 24.693298565722635
    vertex 143.6417728284156 116.16914723950684 24.77848399999997
    vertex 144.28882044117188 109.16914723950686 24.69329856572264
  endloop
endfacet
facet normal -9.220750935600878e-17 8.035100595881629e-33 -1.0
  outer loop
    vertex 141.31240142249294 133.86247967610845 -2.8199664825478954e-14
    vertex 80.14674360908984 109.16914723950686 -2.2559731860383158e-14
    vertex 80.14674360908984 141.16914723950686 -2.2559731860383158e-14
  endloop
endfacet
facet normal -4.834284554145217e-17 3.6720036784225427e-16 -1.0
  outer loop
    vertex 143.6417728284156 134.16914723950686 -2.8199664825478954e-14
    vertex 141.31240142249294 133.86247967610845 -2.8199664825478954e-14
    vertex 80.14674360908984 141.16914723950686 -2.2559731860383158e-14
  endloop
endfacet
facet normal -1.8315709838311145e-34 8.057047092993997e-16 -1.0
  outer loop
    vertex 207.1368020477414 141.16914723950686 -2.2559731860383158e-14
    vertex 143.6417728284156 134.16914723950686 -2.8199664825478954e-14
    vertex 80.14674360908984 141.16914723950686 -2.2559731860383158e-14
  endloop
endfacet
facet normal -3.6370714105354e-15 8.78066712674855e-15 -1.0
  outer loop
    vertex 141.31240142249294 133.86247967610845 -2.8199664825478954e-14
    vertex 139.14177282841564 132.9633758735668 -2.8199664825478954e-14
    vertex 80.14674360908984 109.16914723950686 -2.2559731860383158e-14
  endloop
endfacet
facet normal -2.0152847651746814e-16 2.6263702394755913e-16 -1.0
  outer loop
    vertex 139.14177282841564 132.9633758735668 -2.8199664825478954e-14
    vertex 137.2778117977367 131.53310827018578 -2.8199664825478954e-14
    vertex 80.14674360908984 109.16914723950686 -2.2559731860383158e-14
  endloop
endfacet
facet normal -1.411020435419796e-16 1.0827140606874846e-16 -1.0
  outer loop
    vertex 137.2778117977367 131.53310827018578 -2.8199664825478954e-14
    vertex 135.84754419435566 129.66914723950686 -2.8199664825478954e-14
    vertex 80.14674360908984 109.16914723950686 -2.2559731860383158e-14
  endloop
endfacet
facet normal -1.194662560918188e-16 4.948454351916234e-17 -1.0
  outer loop
    vertex 135.84754419435566 129.66914723950686 -2.8199664825478954e-14
    vertex 134.94844039181402 127.49851864542953 -2.8199664825478954e-14
    vertex 80.14674360908984 109.16914723950686 -2.2559731860383158e-14
  endloop
endfacet
facet normal -1.0765575185329783e-16 1.417314861113278e-17 -1.0
  outer loop
    vertex 134.94844039181402 127.49851864542953 -2.8199664825478954e-14
    vertex 134.64177282841564 125.16914723950686 -2.8199664825478954e-14
    vertex 80.14674360908984 109.16914723950686 -2.2559731860383158e-14
  endloop
endfacet
facet normal 4.834284554144994e-17 3.6720036784228666e-16 -1.0
  outer loop
    vertex 207.1368020477414 141.16914723950686 -2.2559731860383158e-14
    vertex 145.97114423433834 133.86247967610845 -2.8199664825478954e-14
    vertex 143.6417728284156 134.16914723950686 -2.8199664825478954e-14
  endloop
endfacet
facet normal 7.156774567389389e-17 1.7277982223439374e-16 -1.0
  outer loop
    vertex 207.1368020477414 141.16914723950686 -2.2559731860383158e-14
    vertex 148.14177282841564 132.9633758735668 -2.8199664825478954e-14
    vertex 145.97114423433834 133.86247967610845 -2.8199664825478954e-14
  endloop
endfacet
facet normal 8.093003304629459e-17 1.0547007249080741e-16 -1.0
  outer loop
    vertex 207.1368020477414 141.16914723950686 -2.2559731860383158e-14
    vertex 150.00573385909453 131.53310827018578 -2.8199664825478954e-14
    vertex 148.14177282841564 132.9633758735668 -2.8199664825478954e-14
  endloop
endfacet
facet normal 8.740685994432891e-17 6.706964256977898e-17 -1.0
  outer loop
    vertex 207.1368020477414 141.16914723950686 -2.2559731860383158e-14
    vertex 151.43600146247556 129.66914723950686 -2.8199664825478954e-14
    vertex 150.00573385909453 131.53310827018578 -2.8199664825478954e-14
  endloop
endfacet
facet normal 9.327714068878868e-17 3.863665673267674e-17 -1.0
  outer loop
    vertex 207.1368020477414 141.16914723950686 -2.2559731860383158e-14
    vertex 152.33510526501726 127.49851864542954 -2.8199664825478954e-14
    vertex 151.43600146247556 129.66914723950686 -2.8199664825478954e-14
  endloop
endfacet
facet normal 9.964287229166873e-17 1.3118233003985998e-17 -1.0
  outer loop
    vertex 207.1368020477414 141.16914723950686 -2.2559731860383158e-14
    vertex 152.64177282841564 125.16914723950686 -2.8199664825478954e-14
    vertex 152.33510526501726 127.49851864542954 -2.8199664825478954e-14
  endloop
endfacet
facet normal -1.2516514182871746e-15 -3.82246834409825e-16 -1.0
  outer loop
    vertex 148.14177282841567 117.37491860544691 -2.8199664825478954e-14
    vertex 146.14177282841558 109.16914723950686 -2.2559731860383158e-14
    vertex 146.14177282841558 116.54649148070071 -2.5379698342931056e-14
  endloop
endfacet
facet normal -1.535991730894618e-32 -6.873129549411584e-16 -1.0
  outer loop
    vertex 207.1368020477414 109.16914723950686 -2.2559731860383158e-14
    vertex 146.14177282841558 109.16914723950686 -2.2559731860383158e-14
    vertex 148.14177282841567 117.37491860544691 -2.8199664825478954e-14
  endloop
endfacet
facet normal 8.093003304629302e-17 -1.0547007249081198e-16 -1.0
  outer loop
    vertex 207.1368020477414 109.16914723950686 -2.2559731860383158e-14
    vertex 148.14177282841567 117.37491860544691 -2.8199664825478954e-14
    vertex 150.00573385909453 118.8051862088279 -2.8199664825478954e-14
  endloop
endfacet
facet normal 8.740685994432959e-17 -6.706964256977705e-17 -1.0
  outer loop
    vertex 207.1368020477414 109.16914723950686 -2.2559731860383158e-14
    vertex 150.00573385909453 118.8051862088279 -2.8199664825478954e-14
    vertex 151.43600146247556 120.66914723950686 -2.8199664825478954e-14
  endloop
endfacet
facet normal 9.327714068878748e-17 -3.863665673268357e-17 -1.0
  outer loop
    vertex 207.1368020477414 109.16914723950686 -2.2559731860383158e-14
    vertex 151.43600146247556 120.66914723950686 -2.8199664825478954e-14
    vertex 152.33510526501726 122.83977583358416 -2.8199664825478954e-14
  endloop
endfacet
facet normal 9.964287229166943e-17 -1.3118233003979125e-17 -1.0
  outer loop
    vertex 207.1368020477414 109.16914723950686 -2.2559731860383158e-14
    vertex 152.33510526501726 122.83977583358416 -2.8199664825478954e-14
    vertex 152.64177282841564 125.16914723950686 -2.8199664825478954e-14
  endloop
endfacet
facet normal 1.0349444795041393e-16 0.0 -1.0
  outer loop
    vertex 207.1368020477414 109.16914723950686 -2.2559731860383158e-14
    vertex 152.64177282841564 125.16914723950686 -2.8199664825478954e-14
    vertex 207.1368020477414 141.16914723950686 -2.2559731860383158e-14
  endloop
endfacet
facet normal 0.0 -4.90428953486592e-16 -1.0
  outer loop
    vertex 141.14177282841564 109.16914723950686 -2.2559731860383158e-14
    vertex 80.14674360908984 109.16914723950686 -2.2559731860383158e-14
    vertex 135.84754419435566 120.66914723950684 -2.8199664825478954e-14
  endloop
endfacet
facet normal -9.327714068878822e-17 -3.8636656732679375e-17 -1.0
  outer loop
    vertex 135.84754419435566 120.66914723950684 -2.8199664825478954e-14
    vertex 80.14674360908984 109.16914723950686 -2.2559731860383158e-14
    vertex 134.94844039181402 122.83977583358416 -2.8199664825478954e-14
  endloop
endfacet
facet normal -9.964287229166962e-17 -1.3118233003982457e-17 -1.0
  outer loop
    vertex 134.94844039181402 122.83977583358416 -2.8199664825478954e-14
    vertex 80.14674360908984 109.16914723950686 -2.2559731860383158e-14
    vertex 134.64177282841564 125.16914723950686 -2.8199664825478954e-14
  endloop
endfacet
facet normal -1.5977003608331123e-15 -1.2259586055709913e-15 -1.0
  outer loop
    vertex 141.14177282841564 109.16914723950686 -2.2559731860383158e-14
    vertex 135.84754419435566 120.66914723950684 -2.8199664825478954e-14
    vertex 137.2778117977367 118.8051862088279 -2.8199664825478954e-14
  endloop
endfacet
facet normal -6.487178266430898e-16 -8.454255314956899e-16 -1.0
  outer loop
    vertex 141.14177282841564 109.16914723950686 -2.2559731860383158e-14
    vertex 137.2778117977367 118.8051862088279 -2.8199664825478954e-14
    vertex 139.14177282841564 117.37491860544691 -2.8199664825478954e-14
  endloop
endfacet
facet normal 1.2516514182872192e-15 -3.8224683440982454e-16 -1.0
  outer loop
    vertex 141.14177282841564 109.16914723950686 -2.2559731860383158e-14
    vertex 139.14177282841564 117.37491860544691 -2.8199664825478954e-14
    vertex 141.14177282841564 116.54649148070072 -2.5379698342931056e-14
  endloop
endfacet
facet normal 0.5108830691341287 1.1528600885551458e-16 0.859650213559034
  outer loop
    vertex 192.72774254286523 109.16914723950686 53.42048074202908
    vertex 182.1368020477414 115.16914723950686 59.71458978757311
    vertex 182.1368020477414 109.16914723950686 59.71458978757311
  endloop
endfacet
facet normal 0.5108830691341308 5.551648816800014e-15 0.8596502135590329
  outer loop
    vertex 192.72774254286523 109.16914723950686 53.42048074202908
    vertex 188.42949147507008 115.16914723950686 55.97489608769969
    vertex 182.1368020477414 115.16914723950686 59.71458978757311
  endloop
endfacet
facet normal 0.5108830691341254 1.5748696694575075e-17 0.8596502135590363
  outer loop
    vertex 192.72774254286523 109.16914723950686 53.42048074202908
    vertex 188.42949147507008 135.16914723950686 55.97489608769969
    vertex 188.42949147507008 115.16914723950686 55.97489608769969
  endloop
endfacet
facet normal 0.5108830691341312 8.164189436470607e-17 0.8596502135590328
  outer loop
    vertex 188.42949147507008 135.16914723950686 55.97489608769969
    vertex 182.1368020477414 141.16914723950686 59.71458978757311
    vertex 182.1368020477414 135.16914723950686 59.71458978757311
  endloop
endfacet
facet normal 0.5108830691341287 -3.3144727545960443e-15 0.8596502135590343
  outer loop
    vertex 192.72774254286523 141.16914723950686 53.42048074202908
    vertex 182.1368020477414 141.16914723950686 59.71458978757311
    vertex 188.42949147507008 135.16914723950686 55.97489608769969
  endloop
endfacet
facet normal 0.5108830691341252 6.1518346463183845e-18 0.8596502135590363
  outer loop
    vertex 192.72774254286523 141.16914723950686 53.42048074202908
    vertex 188.42949147507008 135.16914723950686 55.97489608769969
    vertex 192.72774254286523 109.16914723950686 53.42048074202908
  endloop
endfacet
facet normal 0.0 -1.0 0.0
  outer loop
    vertex 207.1368020477414 109.16914723950686 37.42864744689327
    vertex 146.14177282841558 109.16914723950686 -2.2559731860383158e-14
    vertex 207.1368020477414 109.16914723950686 -2.2559731860383158e-14
  endloop
endfacet
facet normal 0.0 -1.0 0.0
  outer loop
    vertex 207.1368020477414 109.16914723950686 37.42864744689327
    vertex 146.14177282841558 109.16914723950686 22.278483999999978
    vertex 146.14177282841558 109.16914723950686 -2.2559731860383158e-14
  endloop
endfacet
facet normal 0.0 -1.0 0.0
  outer loop
    vertex 207.1368020477414 109.16914723950686 37.42864744689327
    vertex 146.0565873941383 109.16914723950686 22.925531612756274
    vertex 146.14177282841558 109.16914723950686 22.278483999999978
  endloop
endfacet
facet normal 0.0 -1.0 0.0
  outer loop
    vertex 207.1368020477414 109.16914723950686 37.42864744689327
    vertex 145.80683633787672 109.16914723950686 23.52848399999997
    vertex 146.0565873941383 109.16914723950686 22.925531612756274
  endloop
endfacet
facet normal 0.0 -1.0 0.0
  outer loop
    vertex 207.1368020477414 109.16914723950686 37.42864744689327
    vertex 145.409539781382 109.16914723950686 24.046250952966343
    vertex 145.80683633787672 109.16914723950686 23.52848399999997
  endloop
endfacet
facet normal 0.0 -1.0 0.0
  outer loop
    vertex 207.1368020477414 109.16914723950686 37.42864744689327
    vertex 144.8917728284156 109.16914723950686 24.443547509461073
    vertex 145.409539781382 109.16914723950686 24.046250952966343
  endloop
endfacet
facet normal 0.0 -1.0 0.0
  outer loop
    vertex 207.1368020477414 109.16914723950686 37.42864744689327
    vertex 144.28882044117188 109.16914723950686 24.69329856572264
    vertex 144.8917728284156 109.16914723950686 24.443547509461073
  endloop
endfacet
facet normal 0.0 -1.0 0.0
  outer loop
    vertex 207.1368020477414 109.16914723950686 37.42864744689327
    vertex 143.6417728284156 109.16914723950686 24.77848399999997
    vertex 144.28882044117188 109.16914723950686 24.69329856572264
  endloop
endfacet
facet normal 0.0 -1.0 0.0
  outer loop
    vertex 141.14177282841564 109.16914723950686 22.278483999999978
    vertex 80.14674360908984 109.16914723950686 -2.2559731860383158e-14
    vertex 141.14177282841564 109.16914723950686 -2.2559731860383158e-14
  endloop
endfacet
facet normal 0.0 -1.0 0.0
  outer loop
    vertex 80.14674360908984 109.16914723950686 37.42864744689327
    vertex 80.14674360908984 109.16914723950686 -2.2559731860383158e-14
    vertex 141.14177282841564 109.16914723950686 22.278483999999978
  endloop
endfacet
facet normal 0.0 -1.0 0.0
  outer loop
    vertex 80.14674360908984 109.16914723950686 37.42864744689327
    vertex 141.14177282841564 109.16914723950686 22.278483999999978
    vertex 141.22695826269296 109.16914723950686 22.925531612756274
  endloop
endfacet
facet normal 0.0 -1.0 0.0
  outer loop
    vertex 80.14674360908984 109.16914723950686 37.42864744689327
    vertex 141.22695826269296 109.16914723950686 22.925531612756274
    vertex 141.4767093189545 109.16914723950686 23.52848399999997
  endloop
endfacet
facet normal 0.0 -1.0 0.0
  outer loop
    vertex 80.14674360908984 109.16914723950686 37.42864744689327
    vertex 141.4767093189545 109.16914723950686 23.52848399999997
    vertex 141.87400587544926 109.16914723950686 24.046250952966343
  endloop
endfacet
facet normal 0.0 -1.0 0.0
  outer loop
    vertex 80.14674360908984 109.16914723950686 37.42864744689327
    vertex 141.87400587544926 109.16914723950686 24.046250952966343
    vertex 142.39177282841558 109.16914723950686 24.44354750946107
  endloop
endfacet
facet normal 0.0 -1.0 0.0
  outer loop
    vertex 80.14674360908984 109.16914723950686 37.42864744689327
    vertex 142.39177282841558 109.16914723950686 24.44354750946107
    vertex 142.99472521565932 109.16914723950686 24.69329856572264
  endloop
endfacet
facet normal 0.0 -1.0 0.0
  outer loop
    vertex 80.14674360908984 109.16914723950686 37.42864744689327
    vertex 142.99472521565932 109.16914723950686 24.69329856572264
    vertex 143.6417728284156 109.16914723950686 24.77848399999997
  endloop
endfacet
facet normal 0.0 -1.0 0.0
  outer loop
    vertex 80.14674360908984 109.16914723950686 37.42864744689327
    vertex 143.6417728284156 109.16914723950686 24.77848399999997
    vertex 207.1368020477414 109.16914723950686 37.42864744689327
  endloop
endfacet
facet normal 0.0 -1.0 0.0
  outer loop
    vertex 192.72774254286523 109.16914723950686 53.42048074202908
    vertex 80.14674360908984 109.16914723950686 37.42864744689327
    vertex 207.1368020477414 109.16914723950686 37.42864744689327
  endloop
endfacet
facet normal 0.0 -1.0 0.0
  outer loop
    vertex 192.72774254286523 109.16914723950686 53.42048074202908
    vertex 94.42397859354816 109.16914723950686 53.34213851106589
    vertex 80.14674360908984 109.16914723950686 37.42864744689327
  endloop
endfacet
facet normal 0.0 -1.0 0.0
  outer loop
    vertex 105.14674360908984 109.16914723950686 59.71458978757311
    vertex 94.42397859354816 109.16914723950686 53.34213851106589
    vertex 192.72774254286523 109.16914723950686 53.42048074202908
  endloop
endfacet
facet normal 0.0 -1.0 0.0
  outer loop
    vertex 105.14674360908984 109.16914723950686 59.71458978757311
    vertex 192.72774254286523 109.16914723950686 53.42048074202908
    vertex 182.1368020477414 109.16914723950686 59.71458978757311
  endloop
endfacet
facet normal 0.5897311660967134 0.0 -0.8075996234113849
  outer loop
    vertex 188.42949147507008 135.16914723950686 55.97489608769969
    vertex 181.91970344125576 115.16914723950686 51.22127216696618
    vertex 181.91970344125576 135.16914723950686 51.22127216696618
  endloop
endfacet
facet normal 0.5897311660967133 -2.5800540655408477e-17 -0.807599623411385
  outer loop
    vertex 188.42949147507008 115.16914723950686 55.97489608769969
    vertex 181.91970344125576 115.16914723950686 51.22127216696618
    vertex 188.42949147507008 135.16914723950686 55.97489608769969
  endloop
endfacet
facet normal -0.173655992761043 -1.5868479921590497e-17 -0.9848063749682862
  outer loop
    vertex 135.71254232245448 135.16914723950686 40.49510153975635
    vertex 127.77435046407753 115.16914723950686 41.894883895895624
    vertex 127.77435046407753 135.16914723950686 41.894883895895624
  endloop
endfacet
facet normal -0.17365599276104224 -2.380750634436753e-16 -0.9848063749682864
  outer loop
    vertex 135.71254232245448 135.16914723950686 40.49510153975635
    vertex 134.64177282841558 125.16914723950683 40.68391585314009
    vertex 127.77435046407753 115.16914723950686 41.894883895895624
  endloop
endfacet
facet normal -0.1736559927608689 -1.986567770341899e-14 -0.9848063749683169
  outer loop
    vertex 135.71254232245448 135.16914723950686 40.49510153975635
    vertex 134.94844039181402 127.49851864542953 40.62983957832793
    vertex 134.64177282841558 125.16914723950683 40.68391585314009
  endloop
endfacet
facet normal -0.17365599276106797 9.526934170189632e-16 -0.9848063749682818
  outer loop
    vertex 135.71254232245448 129.34322388941732 40.49510153975635
    vertex 134.94844039181402 127.49851864542953 40.62983957832793
    vertex 135.71254232245448 135.16914723950686 40.49510153975635
  endloop
endfacet
facet normal -0.17365599276104302 2.5389567874544826e-16 -0.9848063749682862
  outer loop
    vertex 135.71254232245448 115.16914723950686 40.49510153975635
    vertex 127.77435046407753 115.16914723950686 41.894883895895624
    vertex 134.64177282841558 125.16914723950683 40.68391585314009
  endloop
endfacet
facet normal -0.17365599276104626 0.0 -0.9848063749682857
  outer loop
    vertex 135.71254232245448 115.16914723950686 40.49510153975635
    vertex 134.64177282841558 125.16914723950683 40.68391585314009
    vertex 134.94844039181402 122.83977583358416 40.62983957832792
  endloop
endfacet
facet normal -0.17365599276105395 -9.526934170189586e-16 -0.9848063749682844
  outer loop
    vertex 135.71254232245448 115.16914723950686 40.49510153975635
    vertex 134.94844039181402 122.83977583358416 40.62983957832792
    vertex 135.71254232245448 120.99507058959642 40.49510153975635
  endloop
endfacet
facet normal 0.05550681987263272 0.0 -0.9984583080668051
  outer loop
    vertex 151.80717485999983 135.16914723950686 40.46317467985428
    vertex 143.75893937586216 134.1537219709018 40.01575293605056
    vertex 143.75893937586216 135.16914723950686 40.01575293605056
  endloop
endfacet
facet normal 0.05550681987263075 1.583756500915283e-14 -0.9984583080668054
  outer loop
    vertex 151.80717485999983 135.16914723950686 40.46317467985428
    vertex 145.97114423433837 133.86247967610845 40.138734993096634
    vertex 143.75893937586216 134.1537219709018 40.01575293605056
  endloop
endfacet
facet normal 0.055506819872632965 5.785912551188365e-15 -0.9984583080668051
  outer loop
    vertex 151.80717485999983 135.16914723950686 40.46317467985428
    vertex 148.14177282841558 132.96337587356683 40.25940572056557
    vertex 145.97114423433837 133.86247967610845 40.138734993096634
  endloop
endfacet
facet normal 0.05550681987263328 5.238216373135671e-15 -0.9984583080668051
  outer loop
    vertex 151.80717485999983 135.16914723950686 40.46317467985428
    vertex 150.00573385909453 131.5331082701858 40.36302802341346
    vertex 148.14177282841558 132.96337587356683 40.25940572056557
  endloop
endfacet
facet normal 0.055506819872639016 2.3843977950428626e-15 -0.9984583080668049
  outer loop
    vertex 151.80717485999983 135.16914723950686 40.46317467985428
    vertex 151.43600146247556 129.66914723950688 40.4425402129452
    vertex 150.00573385909453 131.5331082701858 40.36302802341346
  endloop
endfacet
facet normal 0.05550681987267426 1.8297987863064862e-19 -0.9984583080668029
  outer loop
    vertex 151.80717485999983 128.7730553892116 40.46317467985428
    vertex 151.43600146247556 129.66914723950688 40.4425402129452
    vertex 151.80717485999983 135.16914723950686 40.46317467985428
  endloop
endfacet
facet normal 0.6087614290087251 -0.793353340291232 4.316913178231135e-16
  outer loop
    vertex 150.0057338590946 118.80518620882798 40.36302802341347
    vertex 148.14177282841567 117.37491860544691 -2.8199664825478954e-14
    vertex 150.00573385909453 118.8051862088279 -2.8199664825478954e-14
  endloop
endfacet
facet normal 0.608761429008731 -0.7933533402912275 4.7683121826729266e-18
  outer loop
    vertex 150.0057338590946 118.80518620882798 40.36302802341347
    vertex 148.14177282841567 117.37491860544691 40.25940572056558
    vertex 148.14177282841567 117.37491860544691 -2.8199664825478954e-14
  endloop
endfacet
facet normal 0.1697475283073488 0.0 -0.9854875831960268
  outer loop
    vertex 159.75085770802187 135.16914723950686 41.83145222297276
    vertex 151.80717485999983 128.7730553892116 40.46317467985428
    vertex 151.80717485999983 135.16914723950686 40.46317467985428
  endloop
endfacet
facet normal 0.16974752830734816 1.4638694683078198e-15 -0.985487583196027
  outer loop
    vertex 159.75085770802187 135.16914723950686 41.83145222297276
    vertex 152.3351052650173 127.49851864542954 40.554109241484554
    vertex 151.80717485999983 128.7730553892116 40.46317467985428
  endloop
endfacet
facet normal 0.16974752830734893 3.4636769556669955e-16 -0.9854875831960268
  outer loop
    vertex 159.75085770802187 135.16914723950686 41.83145222297276
    vertex 152.64177282841564 125.16914723950686 40.60693188662645
    vertex 152.3351052650173 127.49851864542954 40.554109241484554
  endloop
endfacet
facet normal 0.16974752830733514 5.713534646957431e-18 -0.9854875831960291
  outer loop
    vertex 152.3351052650172 122.83977583358416 40.55410924148454
    vertex 151.80717485999983 115.16914723950686 40.46317467985428
    vertex 151.80717485999983 121.5652390898021 40.46317467985428
  endloop
endfacet
facet normal 0.16974752830734882 -9.702320392502165e-16 -0.9854875831960268
  outer loop
    vertex 159.75085770802187 115.16914723950686 41.83145222297276
    vertex 151.80717485999983 115.16914723950686 40.46317467985428
    vertex 152.3351052650172 122.83977583358416 40.55410924148454
  endloop
endfacet
facet normal 0.16974752830735138 1.7318384778333849e-15 -0.9854875831960264
  outer loop
    vertex 159.75085770802187 115.16914723950686 41.83145222297276
    vertex 152.3351052650172 122.83977583358416 40.55410924148454
    vertex 152.64177282841564 125.16914723950686 40.60693188662645
  endloop
endfacet
facet normal 0.16974752830734918 7.386009512980803e-19 -0.9854875831960268
  outer loop
    vertex 159.75085770802187 115.16914723950686 41.83145222297276
    vertex 152.64177282841564 125.16914723950686 40.60693188662645
    vertex 159.75085770802187 135.16914723950686 41.83145222297276
  endloop
endfacet
facet normal 0.3900166706341076 0.0 -0.9208077957030371
  outer loop
    vertex 174.90729986082852 135.16914723950686 47.24629082736556
    vertex 167.48497895311172 115.16914723950686 44.1024980594129
    vertex 167.48497895311172 135.16914723950686 44.1024980594129
  endloop
endfacet
facet normal 0.39001667063410767 2.262850837531116e-17 -0.9208077957030371
  outer loop
    vertex 174.90729986082852 115.16914723950686 47.24629082736556
    vertex 167.48497895311172 115.16914723950686 44.1024980594129
    vertex 174.90729986082852 135.16914723950686 47.24629082736556
  endloop
endfacet
facet normal -1.0 0.0 0.0
  outer loop
    vertex 141.14177282841564 116.54649148070072 22.278483999999967
    vertex 141.14177282841564 109.16914723950686 -2.2559731860383158e-14
    vertex 141.14177282841564 109.16914723950686 22.278483999999978
  endloop
endfacet
facet normal -1.0 0.0 0.0
  outer loop
    vertex 141.14177282841564 116.54649148070072 22.278483999999967
    vertex 141.14177282841564 116.54649148070072 -2.5379698342931056e-14
    vertex 141.14177282841564 109.16914723950686 -2.2559731860383158e-14
  endloop
endfacet
facet normal 0.1305261922200525 0.9914448613738103 -1.4671266451088751e-16
  outer loop
    vertex 143.64177282841567 134.16914723950686 40.02273290740255
    vertex 145.97114423433834 133.86247967610845 -2.8199664825478954e-14
    vertex 143.6417728284156 134.16914723950686 -2.8199664825478954e-14
  endloop
endfacet
facet normal 0.1305261922199484 0.991444861373824 -5.3782265604035785e-15
  outer loop
    vertex 143.64177282841567 134.16914723950686 40.02273290740255
    vertex 143.75893937586216 134.1537219709018 40.01575293605056
    vertex 145.97114423433834 133.86247967610845 -2.8199664825478954e-14
  endloop
endfacet
facet normal 0.13052619222005862 0.9914448613738096 -7.34152061515211e-17
  outer loop
    vertex 145.97114423433837 133.86247967610845 40.138734993096634
    vertex 145.97114423433834 133.86247967610845 -2.8199664825478954e-14
    vertex 143.75893937586216 134.1537219709018 40.01575293605056
  endloop
endfacet
facet normal -0.9238795325112831 -0.3826834323650986 0.0
  outer loop
    vertex 135.71254232245448 120.99507058959642 40.49510153975635
    vertex 135.84754419435566 120.66914723950684 -2.8199664825478954e-14
    vertex 135.84754419435566 120.66914723950684 40.48705906330833
  endloop
endfacet
facet normal -0.9238795325112871 -0.38268343236508895 -9.004834601544962e-17
  outer loop
    vertex 134.94844039181402 122.83977583358416 -2.8199664825478954e-14
    vertex 135.84754419435566 120.66914723950684 -2.8199664825478954e-14
    vertex 135.71254232245448 120.99507058959642 40.49510153975635
  endloop
endfacet
facet normal -0.9238795325112878 -0.3826834323650873 -1.3916101182444986e-18
  outer loop
    vertex 134.94844039181402 122.83977583358416 -2.8199664825478954e-14
    vertex 135.71254232245448 120.99507058959642 40.49510153975635
    vertex 134.94844039181402 122.83977583358416 40.62983957832792
  endloop
endfacet
facet normal -0.9914448613738088 0.13052619222006376 -1.0630024492108073e-15
  outer loop
    vertex 134.94844039181402 127.49851864542953 40.62983957832793
    vertex 134.64177282841564 125.16914723950686 -2.8199664825478954e-14
    vertex 134.64177282841558 125.16914723950683 40.68391585314009
  endloop
endfacet
facet normal -0.9914448613738114 0.13052619222004555 0.0
  outer loop
    vertex 134.94844039181402 127.49851864542953 -2.8199664825478954e-14
    vertex 134.64177282841564 125.16914723950686 -2.8199664825478954e-14
    vertex 134.94844039181402 127.49851864542953 40.62983957832793
  endloop
endfacet
facet normal 0.7933533402912342 0.6087614290087219 -3.4021624366706264e-16
  outer loop
    vertex 150.00573385909453 131.53310827018578 -2.8199664825478954e-14
    vertex 151.43600146247556 129.66914723950688 40.4425402129452
    vertex 151.43600146247556 129.66914723950686 -2.8199664825478954e-14
  endloop
endfacet
facet normal 0.7933533402912325 0.6087614290087242 -1.7077898287507185e-16
  outer loop
    vertex 150.00573385909453 131.5331082701858 40.36302802341346
    vertex 151.43600146247556 129.66914723950688 40.4425402129452
    vertex 150.00573385909453 131.53310827018578 -2.8199664825478954e-14
  endloop
endfacet
facet normal -0.744337677350771 0.0 0.6678034307160001
  outer loop
    vertex 94.42397859354816 141.16914723950686 53.34213851106589
    vertex 80.14674360908984 109.16914723950686 37.42864744689327
    vertex 94.42397859354816 109.16914723950686 53.34213851106589
  endloop
endfacet
facet normal -0.744337677350771 -4.97411109800838e-17 0.6678034307160002
  outer loop
    vertex 80.14674360908984 141.16914723950686 37.42864744689327
    vertex 80.14674360908984 109.16914723950686 37.42864744689327
    vertex 94.42397859354816 141.16914723950686 53.34213851106589
  endloop
endfacet
facet normal -0.9238795325112903 0.38268343236508134 1.3916101182444504e-18
  outer loop
    vertex 135.71254232245448 129.34322388941732 40.49510153975635
    vertex 134.94844039181402 127.49851864542953 -2.8199664825478954e-14
    vertex 134.94844039181402 127.49851864542953 40.62983957832793
  endloop
endfacet
facet normal -0.9238795325112878 0.3826834323650874 -3.2174577565070456e-16
  outer loop
    vertex 135.84754419435566 129.66914723950686 -2.8199664825478954e-14
    vertex 134.94844039181402 127.49851864542953 -2.8199664825478954e-14
    vertex 135.71254232245448 129.34322388941732 40.49510153975635
  endloop
endfacet
facet normal -0.9238795325112964 0.3826834323650667 -5.152407099125658e-16
  outer loop
    vertex 135.84754419435566 129.66914723950686 -2.8199664825478954e-14
    vertex 135.71254232245448 129.34322388941732 40.49510153975635
    vertex 135.84754419435566 129.66914723950686 40.48705906330834
  endloop
endfacet
facet normal -0.5929305767206612 3.3638420990041276e-16 -0.805253581916718
  outer loop
    vertex 105.64293215313782 115.16914723950686 51.372582101195356
    vertex 99.15205476812285 115.16914723950686 56.15199539130359
    vertex 99.15205476812287 135.16914723950686 56.15199539130359
  endloop
endfacet
facet normal -0.5929305767206621 -2.587570845387794e-17 -0.8052535819167171
  outer loop
    vertex 105.64293215313782 115.16914723950686 51.372582101195356
    vertex 99.15205476812287 135.16914723950686 56.15199539130359
    vertex 105.64293215313782 135.16914723950686 51.372582101195356
  endloop
endfacet
facet normal 0.0 0.0 1.0
  outer loop
    vertex 182.1368020477414 109.16914723950686 59.71458978757311
    vertex 105.14674360908984 115.16914723950686 59.71458978757311
    vertex 105.14674360908984 109.16914723950686 59.71458978757311
  endloop
endfacet
facet normal 0.0 0.0 1.0
  outer loop
    vertex 182.1368020477414 115.16914723950686 59.71458978757311
    vertex 105.14674360908984 115.16914723950686 59.71458978757311
    vertex 182.1368020477414 109.16914723950686 59.71458978757311
  endloop
endfacet
facet normal -0.2855487526813006 -1.0870871041200501e-17 -0.958364184348598
  outer loop
    vertex 127.77435046407753 135.16914723950686 41.894883895895624
    vertex 120.04930018117174 115.16914723950686 44.19659603070731
    vertex 120.04930018117174 135.16914723950686 44.19659603070731
  endloop
endfacet
facet normal -0.28554875268130064 2.1741742082401005e-17 -0.958364184348598
  outer loop
    vertex 127.77435046407753 115.16914723950686 41.894883895895624
    vertex 120.04930018117174 115.16914723950686 44.19659603070731
    vertex 127.77435046407753 135.16914723950686 41.894883895895624
  endloop
endfacet
facet normal -1.0 0.0 0.0
  outer loop
    vertex 80.14674360908984 141.16914723950686 37.42864744689327
    vertex 80.14674360908984 109.16914723950686 -2.2559731860383158e-14
    vertex 80.14674360908984 109.16914723950686 37.42864744689327
  endloop
endfacet
facet normal -1.0 0.0 0.0
  outer loop
    vertex 80.14674360908984 141.16914723950686 -2.2559731860383158e-14
    vertex 80.14674360908984 109.16914723950686 -2.2559731860383158e-14
    vertex 80.14674360908984 141.16914723950686 37.42864744689327
  endloop
endfacet
facet normal -0.39366679247885167 2.266677644864244e-17 -0.9192532058684446
  outer loop
    vertex 120.04930018117174 135.16914723950686 44.19659603070731
    vertex 112.63951029750366 115.16914723950686 47.36981119908967
    vertex 112.63951029750366 135.16914723950686 47.36981119908967
  endloop
endfacet
facet normal -0.3936667924788516 1.1333388224321223e-17 -0.9192532058684446
  outer loop
    vertex 120.04930018117174 115.16914723950686 44.19659603070731
    vertex 112.63951029750366 115.16914723950686 47.36981119908967
    vertex 120.04930018117174 135.16914723950686 44.19659603070731
  endloop
endfacet
facet normal 1.0 0.0 0.0
  outer loop
    vertex 207.1368020477414 141.16914723950686 -2.2559731860383158e-14
    vertex 207.1368020477414 109.16914723950686 37.42864744689327
    vertex 207.1368020477414 109.16914723950686 -2.2559731860383158e-14
  endloop
endfacet
facet normal 1.0 0.0 0.0
  outer loop
    vertex 207.1368020477414 141.16914723950686 37.42864744689327
    vertex 207.1368020477414 109.16914723950686 37.42864744689327
    vertex 207.1368020477414 141.16914723950686 -2.2559731860383158e-14
  endloop
endfacet
facet normal 0.2817443137521622 3.257436342838815e-17 -0.9594895213957907
  outer loop
    vertex 167.48497895311172 135.16914723950686 44.1024980594129
    vertex 159.75085770802187 115.16914723950686 41.83145222297276
    vertex 159.75085770802187 135.16914723950686 41.83145222297276
  endloop
endfacet
facet normal 0.2817443137521622 2.1716242285592105e-17 -0.9594895213957907
  outer loop
    vertex 167.48497895311172 115.16914723950686 44.1024980594129
    vertex 159.75085770802187 115.16914723950686 41.83145222297276
    vertex 167.48497895311172 135.16914723950686 44.1024980594129
  endloop
endfacet
facet normal 0.38268343236507074 -2.9214439027578464e-15 0.9238795325112948
  outer loop
    vertex 144.8917728284156 109.16914723950686 24.443547509461073
    vertex 144.28882044117196 116.25433267378418 24.693298565722635
    vertex 144.28882044117188 109.16914723950686 24.69329856572264
  endloop
endfacet
facet normal 0.3826834323650999 0.0 0.9238795325112825
  outer loop
    vertex 144.8917728284156 116.3337128614911 24.443547509461073
    vertex 144.28882044117196 116.25433267378418 24.693298565722635
    vertex 144.8917728284156 109.16914723950686 24.443547509461073
  endloop
endfacet
facet normal 0.6087614290087235 0.7933533402912331 4.625262817192888e-16
  outer loop
    vertex 148.14177282841558 132.96337587356683 40.25940572056557
    vertex 150.00573385909453 131.53310827018578 -2.8199664825478954e-14
    vertex 148.14177282841564 132.9633758735668 -2.8199664825478954e-14
  endloop
endfacet
facet normal 0.6087614290087141 0.7933533402912402 -2.253333801823805e-16
  outer loop
    vertex 150.00573385909453 131.5331082701858 40.36302802341346
    vertex 150.00573385909453 131.53310827018578 -2.8199664825478954e-14
    vertex 148.14177282841558 132.96337587356683 40.25940572056557
  endloop
endfacet
facet normal 0.7933533402912485 7.077375908184502e-16 0.6087614290087032
  outer loop
    vertex 145.80683633787672 116.45418325796275 23.528483999999963
    vertex 145.409539781382 109.16914723950686 24.046250952966343
    vertex 145.80683633787672 109.16914723950686 23.52848399999997
  endloop
endfacet
facet normal 0.7933533402912468 9.498686180772772e-16 0.6087614290087054
  outer loop
    vertex 145.80683633787672 116.45418325796275 23.528483999999963
    vertex 145.409539781382 116.40187817401733 24.04625095296633
    vertex 145.409539781382 109.16914723950686 24.046250952966343
  endloop
endfacet
facet normal 0.0555068198726288 0.0 -0.9984583080668054
  outer loop
    vertex 145.97114423433837 116.47581480290523 40.138734993096634
    vertex 143.75893937586216 115.16914723950686 40.01575293605056
    vertex 143.75893937586216 116.18457250811188 40.01575293605056
  endloop
endfacet
facet normal 0.05550681987263274 -6.7128990183182835e-15 -0.9984583080668051
  outer loop
    vertex 151.80717485999983 115.16914723950686 40.46317467985428
    vertex 143.75893937586216 115.16914723950686 40.01575293605056
    vertex 145.97114423433837 116.47581480290523 40.138734993096634
  endloop
endfacet
facet normal 0.055506819872634124 -4.84853007082797e-16 -0.9984583080668051
  outer loop
    vertex 151.80717485999983 115.16914723950686 40.46317467985428
    vertex 145.97114423433837 116.47581480290523 40.138734993096634
    vertex 148.14177282841567 117.37491860544691 40.25940572056558
  endloop
endfacet
facet normal 0.05550681987263116 -5.42529552931902e-15 -0.9984583080668054
  outer loop
    vertex 151.80717485999983 115.16914723950686 40.46317467985428
    vertex 148.14177282841567 117.37491860544691 40.25940572056558
    vertex 150.0057338590946 118.80518620882798 40.36302802341347
  endloop
endfacet
facet normal 0.05550681987263754 -2.258239181548676e-15 -0.9984583080668049
  outer loop
    vertex 151.80717485999983 115.16914723950686 40.46317467985428
    vertex 150.0057338590946 118.80518620882798 40.36302802341347
    vertex 151.43600146247556 120.66914723950686 40.4425402129452
  endloop
endfacet
facet normal 0.05550681987267089 -1.8297987863062517e-19 -0.9984583080668031
  outer loop
    vertex 151.80717485999983 115.16914723950686 40.46317467985428
    vertex 151.43600146247556 120.66914723950686 40.4425402129452
    vertex 151.80717485999983 121.5652390898021 40.46317467985428
  endloop
endfacet
facet normal 0.9914448613738143 1.4381442068617774e-18 0.1305261922200227
  outer loop
    vertex 146.14177282841558 116.54649148070071 22.278483999999978
    vertex 146.0565873941383 109.16914723950686 22.925531612756274
    vertex 146.14177282841558 109.16914723950686 22.278483999999978
  endloop
endfacet
facet normal 0.991444861373819 -3.2452210795733183e-15 0.1305261922199863
  outer loop
    vertex 146.14177282841558 116.54649148070071 22.278483999999978
    vertex 146.05658739413832 116.51120651850638 22.925531612756288
    vertex 146.0565873941383 109.16914723950686 22.925531612756274
  endloop
endfacet
facet normal -0.3826834323650902 -0.9238795325112867 2.4077962158200455e-18
  outer loop
    vertex 139.14177282841564 117.37491860544691 40.290811738506534
    vertex 139.14177282841564 117.37491860544691 -2.8199664825478954e-14
    vertex 141.14177282841564 116.54649148070072 -2.5379698342931056e-14
  endloop
endfacet
facet normal -0.3826834323650821 -0.92387953251129 4.646356236088011e-16
  outer loop
    vertex 139.14177282841564 117.37491860544691 40.290811738506534
    vertex 141.14177282841564 116.54649148070072 -2.5379698342931056e-14
    vertex 141.14177282841564 116.54649148070072 22.278483999999967
  endloop
endfacet
facet normal -0.3826834323650831 -0.9238795325112897 1.954269933307549e-15
  outer loop
    vertex 139.14177282841564 117.37491860544691 40.290811738506534
    vertex 141.14177282841564 116.54649148070072 22.278483999999967
    vertex 141.22695826269296 116.51120651850641 22.925531612756263
  endloop
endfacet
facet normal -0.3826834323652134 -0.9238795325112356 -1.7073627581317373e-14
  outer loop
    vertex 139.14177282841564 117.37491860544691 40.290811738506534
    vertex 141.22695826269296 116.51120651850641 22.925531612756263
    vertex 141.31240142249294 116.47581480290523 23.13180964795743
  endloop
endfacet
facet normal -0.3826834323650924 -0.9238795325112857 5.721068907539852e-18
  outer loop
    vertex 139.14177282841564 117.37491860544691 40.290811738506534
    vertex 141.31240142249294 116.47581480290523 23.13180964795743
    vertex 141.31240142249294 116.47581480290523 40.16150072155963
  endloop
endfacet
facet normal -0.6087614290087189 0.7933533402912365 -1.2073606002803105e-16
  outer loop
    vertex 137.2778117977367 131.53310827018578 40.401853626134944
    vertex 139.14177282841564 132.9633758735668 -2.8199664825478954e-14
    vertex 137.2778117977367 131.53310827018578 -2.8199664825478954e-14
  endloop
endfacet
facet normal -0.6087614290087142 0.7933533402912402 2.2376142766683506e-16
  outer loop
    vertex 137.2778117977367 131.53310827018578 40.401853626134944
    vertex 139.14177282841564 132.96337587356678 40.29081173850654
    vertex 139.14177282841564 132.9633758735668 -2.8199664825478954e-14
  endloop
endfacet
facet normal 0.38268343236508834 0.9238795325112875 -2.121439134575654e-16
  outer loop
    vertex 145.97114423433837 133.86247967610845 40.138734993096634
    vertex 148.14177282841564 132.9633758735668 -2.8199664825478954e-14
    vertex 145.97114423433834 133.86247967610845 -2.8199664825478954e-14
  endloop
endfacet
facet normal 0.38268343236509433 0.9238795325112849 1.699276637039324e-16
  outer loop
    vertex 148.14177282841558 132.96337587356683 40.25940572056557
    vertex 148.14177282841564 132.9633758735668 -2.8199664825478954e-14
    vertex 145.97114423433837 133.86247967610845 40.138734993096634
  endloop
endfacet
facet normal -0.05946764315888759 9.662110710943303e-16 -0.9982302336721361
  outer loop
    vertex 135.84754419435566 129.66914723950686 40.48705906330834
    vertex 135.71254232245448 129.34322388941732 40.49510153975635
    vertex 135.71254232245448 135.16914723950686 40.49510153975635
  endloop
endfacet
facet normal -0.05946764315899194 -1.604057029209648e-15 -0.9982302336721299
  outer loop
    vertex 137.2778117977367 131.53310827018578 40.401853626134944
    vertex 135.84754419435566 129.66914723950686 40.48705906330834
    vertex 135.71254232245448 135.16914723950686 40.49510153975635
  endloop
endfacet
facet normal -0.05946764315899428 -2.6105809924222685e-15 -0.9982302336721297
  outer loop
    vertex 139.14177282841564 132.96337587356678 40.29081173850654
    vertex 137.2778117977367 131.53310827018578 40.401853626134944
    vertex 135.71254232245448 135.16914723950686 40.49510153975635
  endloop
endfacet
facet normal -0.05946764315899523 -4.099111137144105e-15 -0.9982302336721297
  outer loop
    vertex 143.75893937586216 135.16914723950686 40.01575293605056
    vertex 139.14177282841564 132.96337587356678 40.29081173850654
    vertex 135.71254232245448 135.16914723950686 40.49510153975635
  endloop
endfacet
facet normal -0.05946764315899184 -1.0421159693575161e-14 -0.9982302336721299
  outer loop
    vertex 143.75893937586216 135.16914723950686 40.01575293605056
    vertex 141.31240142249294 133.86247967610845 40.16150072155963
    vertex 139.14177282841564 132.96337587356678 40.29081173850654
  endloop
endfacet
facet normal -0.05946764315899758 7.527375141426934e-17 -0.9982302336721295
  outer loop
    vertex 143.75893937586216 135.16914723950686 40.01575293605056
    vertex 143.64177282841567 134.16914723950686 40.02273290740255
    vertex 141.31240142249294 133.86247967610845 40.16150072155963
  endloop
endfacet
facet normal -0.05946764315899693 0.0 -0.9982302336721295
  outer loop
    vertex 143.75893937586216 134.1537219709018 40.01575293605056
    vertex 143.64177282841567 134.16914723950686 40.02273290740255
    vertex 143.75893937586216 135.16914723950686 40.01575293605056
  endloop
endfacet
facet normal 0.3826834323650837 -0.9238795325112894 -4.8231085670401175e-18
  outer loop
    vertex 148.14177282841567 117.37491860544691 40.25940572056558
    vertex 146.14177282841558 116.54649148070071 -2.5379698342931056e-14
    vertex 148.14177282841567 117.37491860544691 -2.8199664825478954e-14
  endloop
endfacet
facet normal 0.38268343236508373 -0.9238795325112894 -7.875180061165581e-18
  outer loop
    vertex 148.14177282841567 117.37491860544691 40.25940572056558
    vertex 146.14177282841558 116.54649148070071 22.278483999999978
    vertex 146.14177282841558 116.54649148070071 -2.5379698342931056e-14
  endloop
endfacet
facet normal 0.3826834323652157 -0.9238795325112348 -1.5663776779635607e-14
  outer loop
    vertex 148.14177282841567 117.37491860544691 40.25940572056558
    vertex 146.05658739413832 116.51120651850638 22.925531612756288
    vertex 146.14177282841558 116.54649148070071 22.278483999999978
  endloop
endfacet
facet normal 0.3826834323649721 -0.9238795325113356 1.284120459986772e-14
  outer loop
    vertex 148.14177282841567 117.37491860544691 40.25940572056558
    vertex 145.97114423433834 116.47581480290523 23.131809647957265
    vertex 146.05658739413832 116.51120651850638 22.925531612756288
  endloop
endfacet
facet normal 0.38268343236509256 -0.9238795325112857 -5.220120158399554e-16
  outer loop
    vertex 148.14177282841567 117.37491860544691 40.25940572056558
    vertex 145.97114423433837 116.47581480290523 40.138734993096634
    vertex 145.97114423433834 116.47581480290523 23.131809647957265
  endloop
endfacet
facet normal -0.7933533402912317 -1.0844956663086697e-16 0.6087614290087251
  outer loop
    vertex 141.87400587544923 116.40187817401733 24.046250952966314
    vertex 141.4767093189545 109.16914723950686 23.52848399999997
    vertex 141.87400587544926 109.16914723950686 24.046250952966343
  endloop
endfacet
facet normal -0.7933533402912293 -4.718250605456839e-16 0.6087614290087283
  outer loop
    vertex 141.4767093189545 116.45418325796275 23.528483999999978
    vertex 141.4767093189545 109.16914723950686 23.52848399999997
    vertex 141.87400587544923 116.40187817401733 24.046250952966314
  endloop
endfacet
facet normal 0.9914448613738114 -0.13052619222004497 1.1017812470595883e-15
  outer loop
    vertex 152.64177282841564 125.16914723950686 -2.8199664825478954e-14
    vertex 152.3351052650172 122.83977583358416 40.55410924148454
    vertex 152.33510526501726 122.83977583358416 -2.8199664825478954e-14
  endloop
endfacet
facet normal 0.9914448613738077 -0.13052619222007325 -5.53208896311655e-16
  outer loop
    vertex 152.64177282841564 125.16914723950686 40.60693188662645
    vertex 152.3351052650172 122.83977583358416 40.55410924148454
    vertex 152.64177282841564 125.16914723950686 -2.8199664825478954e-14
  endloop
endfacet
facet normal 0.0 0.0 1.0
  outer loop
    vertex 182.1368020477414 135.16914723950686 59.71458978757311
    vertex 105.14674360908984 141.16914723950686 59.71458978757311
    vertex 105.14674360908984 135.16914723950686 59.71458978757311
  endloop
endfacet
facet normal 0.0 0.0 1.0
  outer loop
    vertex 182.1368020477414 141.16914723950686 59.71458978757311
    vertex 105.14674360908984 141.16914723950686 59.71458978757311
    vertex 182.1368020477414 135.16914723950686 59.71458978757311
  endloop
endfacet
facet normal 0.9238795325112835 -3.418665461348203e-15 0.38268343236509766
  outer loop
    vertex 146.05658739413832 116.51120651850638 22.925531612756288
    vertex 145.80683633787672 109.16914723950686 23.52848399999997
    vertex 146.0565873941383 109.16914723950686 22.925531612756274
  endloop
endfacet
facet normal 0.9238795325112069 1.440858465670988e-14 0.3826834323652829
  outer loop
    vertex 146.05658739413832 116.51120651850638 22.925531612756288
    vertex 145.97114423433834 116.47581480290523 23.131809647957265
    vertex 145.80683633787672 109.16914723950686 23.52848399999997
  endloop
endfacet
facet normal 0.9238795325112977 4.4063317372596163e-16 0.38268343236506347
  outer loop
    vertex 145.97114423433834 116.47581480290523 23.131809647957265
    vertex 145.80683633787672 116.45418325796275 23.528483999999963
    vertex 145.80683633787672 109.16914723950686 23.52848399999997
  endloop
endfacet
facet normal -0.3826834323651024 1.705076008493161e-15 0.9238795325112816
  outer loop
    vertex 142.99472521565932 116.25433267378418 24.69329856572265
    vertex 142.39177282841555 116.3337128614911 24.443547509461045
    vertex 142.39177282841558 109.16914723950686 24.44354750946107
  endloop
endfacet
facet normal -0.38268343236507424 -1.1076723159368217e-15 0.9238795325112932
  outer loop
    vertex 142.99472521565932 116.25433267378418 24.69329856572265
    vertex 142.39177282841558 109.16914723950686 24.44354750946107
    vertex 142.99472521565932 109.16914723950686 24.69329856572264
  endloop
endfacet
facet normal 0.6087614290087098 7.622276648394544e-18 0.7933533402912435
  outer loop
    vertex 145.409539781382 109.16914723950686 24.046250952966343
    vertex 144.8917728284156 116.3337128614911 24.443547509461073
    vertex 144.8917728284156 109.16914723950686 24.443547509461073
  endloop
endfacet
facet normal 0.6087614290087205 1.2303416352259667e-15 0.7933533402912353
  outer loop
    vertex 145.409539781382 116.40187817401733 24.04625095296633
    vertex 144.8917728284156 116.3337128614911 24.443547509461073
    vertex 145.409539781382 109.16914723950686 24.046250952966343
  endloop
endfacet
facet normal 0.49313332726868797 2.3951281311490524e-17 -0.8699537467802029
  outer loop
    vertex 181.91970344125576 135.16914723950686 51.22127216696618
    vertex 174.90729986082852 115.16914723950686 47.24629082736556
    vertex 174.90729986082852 135.16914723950686 47.24629082736556
  endloop
endfacet
facet normal 0.493133327268688 0.0 -0.8699537467802029
  outer loop
    vertex 181.91970344125576 115.16914723950686 51.22127216696618
    vertex 174.90729986082852 115.16914723950686 47.24629082736556
    vertex 181.91970344125576 135.16914723950686 51.22127216696618
  endloop
endfacet
facet normal -0.9914448613738088 -0.13052619222006379 9.3658518271481e-19
  outer loop
    vertex 134.64177282841558 125.16914723950683 40.68391585314009
    vertex 134.94844039181402 122.83977583358416 -2.8199664825478954e-14
    vertex 134.94844039181402 122.83977583358416 40.62983957832792
  endloop
endfacet
facet normal -0.9914448613738114 -0.1305261922200443 -1.1358620195433498e-15
  outer loop
    vertex 134.64177282841564 125.16914723950686 -2.8199664825478954e-14
    vertex 134.94844039181402 122.83977583358416 -2.8199664825478954e-14
    vertex 134.64177282841558 125.16914723950683 40.68391585314009
  endloop
endfacet
endsolid base
